<svg xmlns="http://www.w3.org/2000/svg" width="256" height="256"><path fill-opacity=".016" d="M0 128.004v128.004l128.25-.254 128.25-.254.254-127.75L257.008 0H0v128.004m.485.496c0 70.4.119 99.053.265 63.672.146-35.38.146-92.98 0-128C.604 29.153.485 58.1.485 128.5" fill="#1976D2" fill-rule="evenodd"/><path fill-opacity=".279" d="M2.073 20.635C-1.351 24.987-.109 29.01 6 33.351c6.307 4.482 30.413 18.155 31.548 17.895 2.336-.536 8.121 17.54 8.882 27.754.308 4.125 1.256 15.6 2.107 25.5 3.65 42.464 4.426 51.771 5.462 65.5.602 7.975 1.59 16.17 2.195 18.211 1.034 3.486.918 3.882-1.912 6.525-9.6 8.968-10.4 23.925-1.816 33.953 5.486 6.409 11.09 8.667 20.082 8.09 8.691-.558 13.681-3.277 18.442-10.048 1.636-2.327 3.365-4.702 3.842-5.278.477-.575 27.372-9.07 59.768-18.877 32.395-9.806 59.912-18.458 61.15-19.226 4.217-2.617 2.337-8.35-2.738-8.35-2.527 0-2.824-.773-12.771-33.25-5.601-18.287-10.12-34.15-10.042-35.25.172-2.44-2.928-13.214-3.99-13.871-.421-.26-7.053 1.452-14.737 3.804-12.26 3.754-14.055 4.081-14.652 2.672-1.212-2.863-.862-3.765 1.43-3.684 1.981.07 2.31-.519 2.75-4.921l.5-5 29.5-.538c16.225-.296 29.613-.633 29.75-.75.137-.117.25-4.262.25-9.212s-.113-9.095-.25-9.212c-.137-.117-13.525-.454-29.75-.75l-29.5-.538-.5-4.991c-.337-3.362-.99-5.083-2-5.272-.825-.154-3.857 1.785-6.738 4.308-2.88 2.524-5.631 4.345-6.112 4.047-.83-.512-1.351-2.304-4.101-14.092-.641-2.75-1.54-5.378-1.997-5.84-.702-.708-7.385 1.087-27.696 7.442l-3.145.983 1.394 4.708c.766 2.589 3.004 10.028 4.973 16.531 1.968 6.503 3.349 12.423 3.069 13.155-.536 1.395-10.48 4.742-11.753 3.955-.405-.25-3.099-7.875-5.987-16.944-3.898-12.241-5.658-16.478-6.829-16.445-.868.024-7.653 1.955-15.078 4.29-15.008 4.719-14.87 4.568-11.338 12.422.926 2.059 4.918 14.093 8.87 26.743 6.802 21.771 7.091 23.08 5.413 24.5-1.695 1.433-1.683 1.789.25 8 1.112 3.575 2.452 6.769 2.977 7.098.977.612 16.099 48.964 15.501 49.562-.182.183-6.68-17.104-14.439-38.414C48.197 45.78 49.336 48.729 45.063 43.639c-.86-1.023-1.563-2.982-1.563-4.353 0-2.163-2.115-3.729-16-11.848C9.463 16.893 5.789 15.91 2.073 20.635M229.504 32.25c-.239.688-.562 3.05-.719 5.25l-.285 4-28.417.266c-18.925.177-28.862.635-29.75 1.372-1.472 1.222-1.885 14.445-.518 16.596.585.923 8.102 1.302 29.734 1.5l28.951.266.5 5c.787 7.869 2.774 7.363 15.895-4.042C251.003 57.148 256 52.206 256 51.476 256 49.583 234.033 31 231.796 31c-1.022 0-2.054.563-2.292 1.25m-97.754 76.404c-5.459 1.727-7.75 2.929-7.75 4.068 0 .889 1.987 7.727 4.415 15.197 2.428 7.47 5.614 17.546 7.079 22.393 1.466 4.846 3.253 9.037 3.972 9.313 1.398.537 15.448-3.352 16.909-4.68.488-.444-1.373-8.233-4.21-17.62-2.797-9.254-6.048-20.088-7.223-24.075-2.452-8.319-1.959-8.148-13.192-4.596m-71.189 8.858c.388 4.943.817 9.122.954 9.287.137.164 1.406.008 2.821-.347l2.572-.646-2.94-8.055c-1.617-4.431-3.203-8.319-3.525-8.642-.322-.322-.269 3.459.118 8.403m5.188 16.178c-1.608.42-1.712 1.898-1.266 18.134.465 16.966 1.04 25.939 2.11 32.926.462 3.014.775 3.25 4.327 3.25 4.922 0 11.206 2.232 15.495 5.503 3.01 2.296 7.479 9.639 9.062 14.89.313 1.041.851 1.613 1.194 1.269.933-.933-26.887-76.681-28.114-76.546-.581.064-1.845.322-2.808.574" fill="#1976D2" fill-rule="evenodd"/><path fill-opacity=".32" d="M3 20c-1.211 1.211-2 3.333-2 5.38 0 2.77.766 3.998 4.25 6.815C9.563 35.682 35.41 51 36.98 51c1.078 0 5.472-6.987 5.661-9 .077-.825.421-2.18.765-3.011.471-1.139-3.543-3.918-16.246-11.25C17.44 22.128 9.169 18 7.645 18 6.19 18 4.1 18.9 3 20m227.667 11.667c-.367.366-.667 2.13-.667 3.918 0 6.78 1.673 6.413-29.357 6.43-15.479.009-28.725.385-29.436.836-.931.59-1.211 3.178-1 9.235l.293 8.414 28.951.266c21.632.198 29.149.577 29.734 1.5.432.679.791 2.936.8 5.015.025 6.341 2.064 5.701 13.746-4.314 11.457-9.823 12.532-10.999 11.454-12.535C253.802 48.459 233.243 31 232.304 31c-.534 0-1.271.3-1.637.667M146.489 64.04c-6.044 5.002-11.101 9.627-11.238 10.278-.35 1.667.349 2.441 8.459 9.362l7.21 6.152-2.887 1.007c-2.297.801-2.771 1.447-2.321 3.168.311 1.189 1.178 2.397 1.927 2.685.748.287 1.361 1.149 1.361 1.915 0 1.599 2.576 1.888 3.5.393.34-.55.119-1-.491-1-.734 0-.798-.554-.189-1.642.505-.903.683-2.543.395-3.644-.499-1.909-.38-1.896 2.559.277 4.286 3.169 6.045 2.158 6.419-3.688l.307-4.803 29.235-.265 29.234-.265.569-2.266c.313-1.246.432-5.177.265-8.735L220.5 66.5 191 66l-29.5-.5-.5-4.991c-.338-3.378-.989-5.084-2.011-5.278-.832-.157-6.457 3.807-12.5 8.809M42 58.417c0 .779.878 3.465 1.95 5.967 1.603 3.738 2.764 14.235 6.51 58.833C55.868 187.607 56.009 189 57.129 189c1.109 0 1.135.785-.632-18.823-.827-9.172-3.076-35.575-4.998-58.672-2.921-35.102-3.863-43.021-5.738-48.25C43.648 57.361 42 55.242 42 58.417m97.617 35.299c-.417.417-1.514.764-2.438.771-1.132.009-1.56.665-1.313 2.013.201 1.1.346 3.463.321 5.25-.052 3.758-.043 3.761 6.135 1.656 4.993-1.701 5.864-2.863 2.755-3.676-1.196-.312-2.046-1.555-2.25-3.289-.332-2.829-1.832-4.102-3.21-2.725M139.031 97c0 .825.436 2.175.969 3 .862 1.333.969 1.333.969 0 0-.825-.436-2.175-.969-3-.862-1.333-.969-1.333-.969 0m-75.387 35.198-2.857 1.04.65 7.631C62.465 152.959 63.156 157 64.193 157c.9 0 .619-6.385-.78-17.697-.482-3.89-.297-4.312 2.534-5.775 4.917-2.543 3.414-3.412-2.303-1.33m132.499 29.854c-1.956.799-2.239 1.428-1.669 3.7.845 3.368 2.332 5.248 4.148 5.248 1.72 0 1.814 1.678.128 2.28-.687.245-.985.735-.662 1.088.323.352 2.092.117 3.931-.524 3.238-1.129 3.27-1.193 1.024-2.024-2.219-.821-2.244-.94-.578-2.781 1.358-1.5 1.536-2.541.809-4.731-1.013-3.058-3.355-3.798-7.131-2.256m-10.657 3.994c-.498 1.568-.984 1.856-1.785 1.055-1.714-1.714-3.701-1.297-3.701.777 0 1.033.675 3.493 1.5 5.468.825 1.974 1.5 3.829 1.5 4.122 0 .293-.675.532-1.5.532s-1.5.675-1.5 1.5c0 1.955 3.157 1.817 9.5-.413 3.066-1.078 5.132-2.44 5.342-3.519.266-1.368-.113-1.617-1.695-1.115-1.748.555-2.124.108-2.646-3.153-1.049-6.552-3.717-9.347-5.015-5.254M184 169.351c0 .193.494 1.768 1.098 3.5 1.017 2.919 2.902 4.357 2.902 2.214 0-1.987-2-6.065-2.975-6.065-.564 0-1.025.158-1.025.351M67 189.025c-15.759 2.03-24.758 20.034-17.397 34.807C60.671 246.042 95 237.974 95 213.162c0-15.637-12.217-26.169-28-24.137" fill="#1976D2" fill-rule="evenodd"/><path fill-opacity=".39" d="M3.56 20.349C-2.303 26.212.754 29.932 21.5 42.18c16.718 9.871 15.012 9.337 17.821 5.576 1.337-1.791 2.715-4.852 3.062-6.802l.631-3.547-16.169-9.373c-8.894-5.155-17.195-9.569-18.448-9.809-1.515-.289-3.135.422-4.837 2.124M230 36.378c0 2.428-.594 4.87-1.333 5.484-.888.737-10.825 1.195-29.75 1.372L170.5 43.5v16l28.417.266c18.925.177 28.862.635 29.75 1.372.739.614 1.333 3.056 1.333 5.484 0 3.559.339 4.378 1.811 4.378 2.423 0 23.356-17.932 22.983-19.687-.438-2.056-21.016-19.294-23.044-19.304-1.401-.007-1.75.863-1.75 4.369M42.001 57.75c0 .413.855 3.001 1.901 5.751 1.045 2.751 2.184 7.026 2.53 9.5C47.047 77.395 56 183.633 56 186.535c0 .806.353 1.465.785 1.465.432 0-.663-17.213-2.433-38.25-1.77-21.037-3.963-47.475-4.873-58.75-1.342-16.622-2.128-21.777-4.154-27.25-2.271-6.132-3.326-8.036-3.324-6M149 92.622c0 1.329-.271 1.398-1.5.378-1.75-1.452-1.927-.666-.465 2.066 1.933 3.61 5.709 1.854 4.462-2.075-.759-2.392-2.497-2.649-2.497-.369m-8.65 2.472c1.876 6.782 1.881 6.906.304 6.906-.995 0-1.802-1.273-2.22-3.5-.361-1.925-1.057-3.5-1.545-3.5-1.121 0-1.119.042.246 3.958.911 2.614.862 3.43-.25 4.134-1.179.747-1.179.88-.001.893 2.401.026 9.116-2.266 9.116-3.112 0-.446-.648-.562-1.439-.258-1.027.394-1.632-.478-2.113-3.042-.371-1.978-1.145-3.885-1.719-4.24-.677-.419-.81.2-.379 1.761m-75.888 37.308-3.038 1.323.717 7.888c.394 4.338.749 9.35.788 11.137.039 1.787.421 3.25.848 3.25s.459-3.488.071-7.75c-1.228-13.491-1.157-14.134 1.652-14.839 1.375-.345 2.5-1.029 2.5-1.519 0-1.084.179-1.109-3.538.51m134.788 29.26c-.687.278-1.264 1.48-1.282 2.671-.031 2.121-.063 2.125-1.5.226-1.448-1.915-1.468-1.915-1.468.059 0 2.333 1.833 4.873 4.072 5.642 2.231.767 4.01-2.6 3.286-6.219-.616-3.083-.874-3.28-3.108-2.379M186 166.295c0 2.197 3.229 9.366 3.665 8.138.663-1.863-1.174-8.769-2.444-9.193-.672-.224-1.221.251-1.221 1.055m-5.272 1.638c-.297 1.136-.167 2.296.289 2.577.456.282 1.125 1.858 1.486 3.501.361 1.644 1.119 2.989 1.685 2.989.636 0 .745-1.05.285-2.75-.409-1.512-.824-3.545-.924-4.516-.301-2.947-2.204-4.162-2.821-1.801m6.347 8.939c-2.983.922-5.604 2.216-5.825 2.877-.292.876.906.798 4.425-.285 2.654-.817 5.834-1.754 7.068-2.082 1.234-.327 1.995-.997 1.691-1.489-.674-1.09-.652-1.093-7.359.979m-126.744 14.6c-14.711 7.473-17.627 27.379-5.673 38.725 8.486 8.054 24.129 8.054 32.718 0 3.746-3.512 7.602-11.749 7.614-16.265.025-9.121-5.457-18.536-13.09-22.484-1.861-.962-6.313-1.941-9.892-2.175-5.556-.364-7.264-.042-11.677 2.199" fill="#1976D2" fill-rule="evenodd"/></svg>